<svg id="SvgjsSvg1001" width="288" height="288" xmlns="http://www.w3.org/2000/svg" version="1.1" xmlns:xlink="http://www.w3.org/1999/xlink" xmlns:svgjs="http://svgjs.com/svgjs"><defs id="SvgjsDefs1002"></defs><g id="SvgjsG1008" transform="matrix(1,0,0,1,0,0)"><svg xmlns="http://www.w3.org/2000/svg" enable-background="new 0 0 455.008 455.008" viewBox="0 0 455.008 455.008" width="288" height="288"><path d="M162.499 266.543h130.008c7.204 0 13.761-5.568 14.927-12.678.298-1.815 7.292-44.741 7.292-68.028 0-74.062-30.048-142.626-80.377-183.41C232.417.861 229.986 0 227.503 0c-2.485 0-4.917.862-6.844 2.427-50.329 40.784-80.377 109.349-80.377 183.41 0 23.287 6.993 66.212 7.291 68.028C148.739 260.975 155.296 266.543 162.499 266.543zM227.504 93.801c21.914 0 39.678 17.764 39.678 39.678s-17.764 39.678-39.678 39.678-39.678-17.764-39.678-39.678S205.59 93.801 227.504 93.801zM323.683 326.587c-.264-.716-2.884-7.348-13.573-19.394-3.22-3.626-5.414-5.977-6.184-6.62-4.41-3.686-12.365-6.661-18.196-6.774L169.192 293.8c-5.745.112-13.701 3.087-18.113 6.773-.769.643-2.964 2.995-6.182 6.621-10.688 12.045-13.309 18.677-13.572 19.393-1.838 4.996-3.278 13.078-3.278 18.4v70.574c0 4.593.609 11.401 1.628 14.845l.57 1.93 4.059 1.804c1.287.572 2.647.862 4.044.862h2.92l1.126-.79c1.812-1.269 6.263-5.134 9.521-8.137l43.571-40.18c.688 2.693 1.689 5.694 2.686 8.173l22.04 54.87c2.122 5.28 5.48 6.069 7.293 6.069s5.171-.789 7.293-6.07l22.04-54.868c.995-2.479 1.998-5.478 2.685-8.17l43.572 40.176c3.252 2.999 7.699 6.861 9.512 8.135l1.127.792h2.927c1.401 0 2.764-.292 4.032-.858l4.07-1.798.572-1.936c1.018-3.446 1.627-10.256 1.627-14.849v-70.574C326.961 339.665 325.521 331.583 323.683 326.587z" fill="#ffffff" class="color000 svgShape"></path></svg></g></svg>